<svg width="21" height="21" viewBox="0 0 21 21" fill="none" xmlns="http://www.w3.org/2000/svg">
<path fill-rule="evenodd" clip-rule="evenodd" d="M16.3333 0C16.9522 0 17.5457 0.245833 17.9832 0.683417C18.4208 1.121 18.6667 1.71449 18.6667 2.33333V3.5H19.8333C20.1428 3.5 20.4395 3.62292 20.6583 3.84171C20.8771 4.0605 21 4.35725 21 4.66667C21 4.97609 20.8771 5.27283 20.6583 5.49162C20.4395 5.71042 20.1428 5.83333 19.8333 5.83333V18.6667C20.1428 18.6667 20.4395 18.7896 20.6583 19.0084C20.8771 19.2272 21 19.5239 21 19.8333C21 20.1428 20.8771 20.4395 20.6583 20.6583C20.4395 20.8771 20.1428 21 19.8333 21H12.25V15.75C12.25 15.2859 12.0656 14.8408 11.7374 14.5126C11.4092 14.1844 10.9641 14 10.5 14C10.0359 14 9.59075 14.1844 9.26256 14.5126C8.93437 14.8408 8.75 15.2859 8.75 15.75V21H1.16667C0.857247 21 0.560501 20.8771 0.341709 20.6583C0.122916 20.4395 0 20.1428 0 19.8333C0 19.5239 0.122916 19.2272 0.341709 19.0084C0.560501 18.7896 0.857247 18.6667 1.16667 18.6667V5.83333C0.857247 5.83333 0.560501 5.71042 0.341709 5.49162C0.122916 5.27283 0 4.97609 0 4.66667C0 4.35725 0.122916 4.0605 0.341709 3.84171C0.560501 3.62292 0.857247 3.5 1.16667 3.5H2.33333V2.33333C2.33333 1.71449 2.57917 1.121 3.01675 0.683417C3.45434 0.245833 4.04783 0 4.66667 0H16.3333ZM5.83333 11.6667C5.52391 11.6667 5.22717 11.7896 5.00838 12.0084C4.78958 12.2272 4.66667 12.5239 4.66667 12.8333V14C4.66667 14.3094 4.78958 14.6062 5.00838 14.825C5.22717 15.0437 5.52391 15.1667 5.83333 15.1667C6.14275 15.1667 6.4395 15.0437 6.65829 14.825C6.87708 14.6062 7 14.3094 7 14V12.8333C7 12.5239 6.87708 12.2272 6.65829 12.0084C6.4395 11.7896 6.14275 11.6667 5.83333 11.6667ZM15.1667 11.6667C14.8809 11.6667 14.6051 11.7716 14.3916 11.9615C14.178 12.1514 14.0416 12.413 14.0082 12.6968L14 12.8333V14C14.0003 14.2974 14.1142 14.5834 14.3183 14.7996C14.5225 15.0158 14.8014 15.1459 15.0983 15.1634C15.3951 15.1808 15.6874 15.0842 15.9155 14.8934C16.1435 14.7025 16.29 14.4318 16.3252 14.1365L16.3333 14V12.8333C16.3333 12.5239 16.2104 12.2272 15.9916 12.0084C15.7728 11.7896 15.4761 11.6667 15.1667 11.6667ZM5.83333 7C5.54758 7.00004 5.27177 7.10495 5.05823 7.29483C4.84469 7.48472 4.70827 7.74637 4.67483 8.03017L4.66667 8.16667V9.33333C4.667 9.63069 4.78086 9.9167 4.98499 10.1329C5.18912 10.3492 5.46811 10.4793 5.76496 10.4967C6.06181 10.5141 6.35411 10.4175 6.58214 10.2267C6.81017 10.0358 6.95671 9.76511 6.99183 9.46983L7 9.33333V8.16667C7 7.85725 6.87708 7.5605 6.65829 7.34171C6.4395 7.12292 6.14275 7 5.83333 7ZM10.5 7C10.2142 7.00004 9.93844 7.10495 9.7249 7.29483C9.51136 7.48472 9.37493 7.74637 9.3415 8.03017L9.33333 8.16667V9.33333C9.33366 9.63069 9.44753 9.9167 9.65166 10.1329C9.85579 10.3492 10.1348 10.4793 10.4316 10.4967C10.7285 10.5141 11.0208 10.4175 11.2488 10.2267C11.4768 10.0358 11.6234 9.76511 11.6585 9.46983L11.6667 9.33333V8.16667C11.6667 7.85725 11.5437 7.5605 11.325 7.34171C11.1062 7.12292 10.8094 7 10.5 7ZM15.1667 7C14.8572 7 14.5605 7.12292 14.3417 7.34171C14.1229 7.5605 14 7.85725 14 8.16667V9.33333C14 9.64275 14.1229 9.9395 14.3417 10.1583C14.5605 10.3771 14.8572 10.5 15.1667 10.5C15.4761 10.5 15.7728 10.3771 15.9916 10.1583C16.2104 9.9395 16.3333 9.64275 16.3333 9.33333V8.16667C16.3333 7.85725 16.2104 7.5605 15.9916 7.34171C15.7728 7.12292 15.4761 7 15.1667 7ZM16.3333 2.33333H4.66667V3.5H16.3333V2.33333Z" fill="#447A11"/>
</svg>
