<svg width="26" height="22" viewBox="0 0 26 22" fill="none" xmlns="http://www.w3.org/2000/svg">
<path d="M23.5207 18.8544C23.8181 18.8547 24.1041 18.9686 24.3203 19.1727C24.5365 19.3769 24.6666 19.6559 24.6841 19.9527C24.7015 20.2496 24.6049 20.5419 24.4141 20.7699C24.2232 20.9979 23.9525 21.1445 23.6572 21.1796L23.5207 21.1877H2.5207C2.22334 21.1874 1.93733 21.0736 1.7211 20.8694C1.50487 20.6653 1.37476 20.3863 1.35733 20.0895C1.3399 19.7926 1.43648 19.5003 1.62734 19.2723C1.81819 19.0442 2.08892 18.8977 2.3842 18.8626L2.5207 18.8544H23.5207ZM8.27236 0.394247L15.9292 6.64758L21.2644 5.65008C21.9068 5.53009 22.5701 5.59239 23.1789 5.82992C23.7878 6.06746 24.318 6.47073 24.7095 6.99408L24.8985 7.24958C25.1085 7.54941 25.2672 7.86091 25.1844 8.26225C25.0583 8.8808 24.7622 9.45195 24.3294 9.91153C23.8966 10.3711 23.3442 10.7009 22.7344 10.8639L5.0967 15.5877C4.75071 15.6804 4.38464 15.6646 4.0479 15.5425C3.71117 15.4205 3.42 15.198 3.2137 14.9052L0.105697 10.4929C0.0518446 10.4161 0.017311 10.3274 0.00502487 10.2344C-0.00726125 10.1414 0.00306253 10.0468 0.0351206 9.95869C0.0671787 9.87053 0.120025 9.7914 0.189179 9.72802C0.258332 9.66463 0.341752 9.61886 0.432363 9.59458L2.32586 9.08591C2.60423 9.01121 2.89674 9.00641 3.1774 9.07194C3.45807 9.13748 3.7182 9.27132 3.9347 9.46158L4.80503 10.2269L4.8167 10.2292L9.7167 8.31591C9.71847 8.31525 9.72006 8.31417 9.72132 8.31276C9.72259 8.31134 9.72349 8.30965 9.72394 8.30781C9.7244 8.30597 9.72441 8.30405 9.72396 8.30221C9.72351 8.30037 9.72262 8.29867 9.72136 8.29725L4.20886 1.58308C4.14702 1.50768 4.10507 1.41799 4.08684 1.3222C4.06861 1.2264 4.07469 1.12757 4.10451 1.03473C4.13434 0.941891 4.18696 0.85801 4.25757 0.790756C4.32818 0.723502 4.41452 0.675021 4.5087 0.649747L6.7137 0.0594136C6.98145 -0.0121943 7.26239 -0.0191794 7.53337 0.0390334C7.80436 0.0972463 8.05764 0.218992 8.27236 0.394247Z" fill="#5664E1"/>
</svg>
