<svg width="19" height="18" viewBox="0 0 19 18" fill="none" xmlns="http://www.w3.org/2000/svg">
<path d="M5.24179 8.29286C5.33476 8.38573 5.40852 8.49602 5.45885 8.61742C5.50917 8.73882 5.53507 8.86895 5.53507 9.00036C5.53507 9.13178 5.50917 9.2619 5.45885 9.3833C5.40852 9.5047 5.33476 9.61499 5.24179 9.70786L3.41479 11.5359H13.0348C13.3 11.5359 13.5544 11.6412 13.7419 11.8288C13.9294 12.0163 14.0348 12.2706 14.0348 12.5359C14.0348 12.8011 13.9294 13.0554 13.7419 13.243C13.5544 13.4305 13.3 13.5359 13.0348 13.5359H3.41479L5.24279 15.3639C5.3357 15.4567 5.40941 15.5669 5.45972 15.6883C5.51003 15.8096 5.53594 15.9397 5.53599 16.071C5.53604 16.2024 5.51021 16.3324 5.45999 16.4538C5.40977 16.5752 5.33613 16.6855 5.24329 16.7784C5.15044 16.8713 5.04021 16.945 4.91887 16.9953C4.79754 17.0456 4.66749 17.0715 4.53614 17.0716C4.40479 17.0716 4.27472 17.0458 4.15335 16.9956C4.03198 16.9453 3.9217 16.8717 3.82879 16.7789L0.292786 13.2429C0.105315 13.0553 0 12.801 0 12.5359C0 12.2707 0.105315 12.0164 0.292786 11.8289L3.82879 8.29286C4.01631 8.10539 4.27062 8.00007 4.53579 8.00007C4.80095 8.00007 5.05526 8.10539 5.24279 8.29286H5.24179ZM12.8278 0.292861C13 0.120685 13.2291 0.0172534 13.4721 0.00197221C13.7151 -0.013309 13.9554 0.06061 14.1478 0.209861L14.2418 0.292861L17.7778 3.82886C17.95 4.00105 18.0534 4.23015 18.0687 4.47318C18.084 4.71621 18.01 4.95646 17.8608 5.14886L17.7778 5.24286L14.2418 8.77786C14.0618 8.95721 13.8204 9.06133 13.5664 9.06909C13.3125 9.07684 13.0651 8.98765 12.8745 8.81961C12.6839 8.65158 12.5645 8.41731 12.5404 8.16439C12.5163 7.91146 12.5894 7.65885 12.7448 7.45786L12.8278 7.36386L14.6548 5.53586H5.03479C4.77991 5.53558 4.53475 5.43798 4.34942 5.26301C4.16408 5.08804 4.05255 4.84891 4.03761 4.59447C4.02268 4.34002 4.10546 4.08948 4.26905 3.89403C4.43264 3.69858 4.66469 3.57296 4.91779 3.54286L5.03479 3.53586H14.6558L12.8278 1.70586C12.6403 1.51833 12.535 1.26403 12.535 0.998861C12.535 0.733697 12.6403 0.480389 12.8278 0.292861Z" fill="#19C0FF"/>
</svg>
